<svg width="120" height="51" viewBox="0 0 120 51" fill="none" xmlns="http://www.w3.org/2000/svg">
<path d="M43.6953 41.327L44.8292 39.4594C46.1632 40.6266 48.4978 41.3937 50.8929 41.3937C54.2613 41.3937 56.0955 40.2264 56.0955 38.2588C56.0955 34.2901 46.1572 37.0248 46.1572 31.0885C46.1572 27.7534 49.1587 25.6312 53.761 25.6312C55.9955 25.6312 58.3633 26.2648 59.6974 27.2653L58.6969 29.1663C57.3295 28.1324 55.3618 27.6504 53.5609 27.6504C50.326 27.6504 48.4917 28.951 48.4917 30.852C48.4917 34.9207 58.4301 32.1526 58.4301 37.9889C58.4301 41.4573 55.3285 43.4462 50.6595 43.4462C47.7974 43.4614 45.0627 42.5609 43.6953 41.327Z" fill="#59666F"/>
<path d="M80.18 25.7524L76.6752 43.2916H74.4074L74.9744 40.4902C73.2735 42.5245 70.9056 43.4583 68.2043 43.4583C64.2629 43.4583 61.9678 41.3361 61.9678 37.7221C61.9716 37.0613 62.0386 36.4025 62.1679 35.7544L64.1689 25.7494H66.5368L64.5357 35.7544C64.4343 36.271 64.3784 36.7955 64.369 37.3219C64.369 39.8565 65.8364 41.3239 68.8379 41.3239C72.5398 41.3239 75.1078 39.2562 75.9415 35.1875L77.8122 25.7494L80.18 25.7524Z" fill="#59666F"/>
<path d="M85.7709 25.7524H88.1387L84.6824 43.2916H82.3146L85.7709 25.7524ZM86.3772 20.3497C86.3743 20.1095 86.4199 19.8713 86.5115 19.6492C86.603 19.4272 86.7386 19.226 86.91 19.0577C87.0813 18.8894 87.285 18.7576 87.5087 18.6701C87.7324 18.5827 87.9714 18.5414 88.2115 18.5488C88.4185 18.5403 88.6252 18.5728 88.8196 18.6445C89.014 18.7162 89.1922 18.8257 89.3441 18.9666C89.496 19.1075 89.6186 19.277 89.7046 19.4655C89.7907 19.654 89.8386 19.8576 89.8457 20.0647C89.8523 20.3118 89.8086 20.5576 89.7171 20.7872C89.6256 21.0168 89.4883 21.2254 89.3135 21.4002C89.1387 21.5749 88.9302 21.7123 88.7006 21.8038C88.471 21.8953 88.2251 21.939 87.9781 21.9323C87.7684 21.936 87.5601 21.8976 87.3654 21.8196C87.1707 21.7416 86.9936 21.6255 86.8445 21.478C86.6953 21.3306 86.5772 21.1548 86.4969 20.961C86.4167 20.7673 86.376 20.5594 86.3772 20.3497Z" fill="#59666F"/>
<path d="M94.0866 37.9919C94.0132 38.3547 93.9686 38.7227 93.9532 39.0925C93.9532 40.5933 94.7869 41.427 96.4878 41.427C97.4635 41.4275 98.4124 41.108 99.1892 40.5175L99.7561 42.3184C98.6556 43.1521 97.1881 43.4523 95.8541 43.4523C93.2195 43.4523 91.5853 41.9515 91.5853 39.4503C91.5817 38.9911 91.6264 38.5327 91.7187 38.0829L93.7531 27.7443H90.6515L91.0183 25.7433H94.1533L94.9203 21.9081H97.2912L96.5242 25.7433H101.86L101.46 27.7443H96.124L94.0866 37.9919Z" fill="#59666F"/>
<path d="M120 33.2229C120 33.4563 119.967 33.7231 119.967 33.9899L105.026 36.758C105.36 39.7262 107.327 41.3603 111.029 41.3603C113.364 41.3603 115.465 40.5599 116.765 39.1592L117.833 40.8601C116.199 42.4942 113.631 43.4614 110.829 43.4614C105.76 43.4614 102.658 40.5933 102.658 35.9909C102.658 30.0879 106.727 25.619 112.36 25.619C116.966 25.619 120 28.287 120 33.2229ZM105.026 34.9904L117.799 32.5892C117.733 29.4876 115.598 27.62 112.297 27.62C108.261 27.62 105.36 30.6216 105.026 34.9904Z" fill="#59666F"/>
<path d="M14.471 26.9197C12.9695 25.6907 11.0843 25.0276 9.14402 25.046C3.81102 25.046 0 28.8904 0 34.2901C0 39.6898 3.81102 43.5948 9.14402 43.5948C11.0541 43.6146 12.9119 42.9718 14.4012 41.7757V43.0036H19.5554V25.5675H14.4892L14.471 26.9197ZM9.94746 38.283C7.69783 38.283 6.04245 36.5821 6.04245 34.3052C6.04245 32.0283 7.68268 30.3426 9.94746 30.3426C12.2122 30.3426 13.8494 32.0435 13.8494 34.3052C13.8494 36.567 12.1971 38.283 9.94746 38.283Z" fill="#59666F"/>
<path d="M37.107 26.5649V25.5857H22.0176V30.8883H28.7968L22.1176 42.1334V43.0248H37.1737V37.6827H30.5189L37.107 26.5649Z" fill="#59666F"/>
<path d="M26.7196 6H25.1824L26.7651 7.67661C23.1319 10.8418 18.6057 12.801 13.8115 13.2838C9.01721 13.7666 4.19129 12.7491 0 10.3719C1.71764 13.3486 4.0713 15.9093 6.89292 17.8712C9.71455 19.8332 12.9346 21.1479 16.323 21.7217C19.7115 22.2954 23.1848 22.1139 26.495 21.1902C29.8052 20.2665 32.8707 18.6233 35.4725 16.378L37.0945 17.9091V6H26.7196Z" fill="#FE7C6E"/>
</svg>
